HIERARCHY
ROOT Hips
{
	OFFSET -3.958830 18.904000 13.208200
	CHANNELS 6 Xposition Yposition Zposition Zrotation Yrotation Xrotation 
	JOINT LHipJoint
	{
		OFFSET 0.000000 0.000000 0.000000
		CHANNELS 3 Zrotation Yrotation Xrotation
		JOINT LeftUpLeg
		{
			OFFSET 1.800000 -1.400000 0.085000
			CHANNELS 3 Zrotation Yrotation Xrotation
			JOINT LeftLeg
			{
				OFFSET 2.215000 -6.000000 0.000000
				CHANNELS 3 Zrotation Yrotation Xrotation
				JOINT LeftFoot
				{
					OFFSET 2.500000 -6.900000 0.000000
					CHANNELS 3 Zrotation Yrotation Xrotation
					JOINT LeftToeBase
					{
						OFFSET 0.200000 -0.500000 1.950000
						CHANNELS 3 Zrotation Yrotation Xrotation
						End Site
						{
							OFFSET 0.000000 0.000000 0.000000
						}
					}
				}
			}
		}
	}
	JOINT RHipJoint
	{
		OFFSET 0.000000 0.000000 0.000000
		CHANNELS 3 Zrotation Yrotation Xrotation
		JOINT RightUpLeg
		{
			OFFSET -1.800000 -1.400000 0.085000
			CHANNELS 3 Zrotation Yrotation Xrotation
			JOINT RightLeg
			{
				OFFSET -2.215000 -6.000000 0.000000
				CHANNELS 3 Zrotation Yrotation Xrotation
				JOINT RightFoot
				{
					OFFSET -2.500000 -6.900000 0.000000
					CHANNELS 3 Zrotation Yrotation Xrotation
					JOINT RightToeBase
					{
						OFFSET -0.200000 -0.500000 1.950000
						CHANNELS 3 Zrotation Yrotation Xrotation
						End Site
						{
							OFFSET 0.000000 0.000000 0.000000
						}
					}
				}
			}
		}
	}
	JOINT LowerBack
	{
		OFFSET 0.000000 0.000000 0.000000
		CHANNELS 3 Zrotation Yrotation Xrotation
		JOINT Spine
		{
			OFFSET -0.087000 1.940000 -0.288900
			CHANNELS 3 Zrotation Yrotation Xrotation
			JOINT Spine1
			{
				OFFSET 0.000000 1.950000 0.060000
				CHANNELS 3 Zrotation Yrotation Xrotation
				JOINT Neck
				{
					OFFSET 0.000000 0.000000 0.000000
					CHANNELS 3 Zrotation Yrotation Xrotation
					JOINT Neck1
					{
						OFFSET 0.000000 1.600000 0.340000
						CHANNELS 3 Zrotation Yrotation Xrotation
						JOINT Head
						{
							OFFSET 0.000000 1.667000 -0.240000
							CHANNELS 3 Zrotation Yrotation Xrotation
							End Site
							{
								OFFSET 0.000000 0.000000 0.000000
							}
						}
					}
				}
				JOINT LeftShoulder
				{
					OFFSET 0.000000 0.000000 0.000000
					CHANNELS 3 Zrotation Yrotation Xrotation
					JOINT LeftArm
					{
						OFFSET 2.700000 1.550000 -0.730000
						CHANNELS 3 Zrotation Yrotation Xrotation
						JOINT LeftForeArm
						{
							OFFSET 5.450000 0.000000 0.000000
							CHANNELS 3 Zrotation Yrotation Xrotation
							JOINT LeftHand
							{
								OFFSET 3.450000 0.000000 0.000000
								CHANNELS 3 Zrotation Yrotation Xrotation
								JOINT LeftHandIndex1
								{
									OFFSET 0.750000 0.000000 0.000000
									CHANNELS 3 Zrotation Yrotation Xrotation
									End Site
									{
										OFFSET 0.000000 0.000000 0.000000
									}
								}
							}
						}
					}
				}
				JOINT RightShoulder
				{
					OFFSET 0.000000 0.000000 0.000000
					CHANNELS 3 Zrotation Yrotation Xrotation
					JOINT RightArm
					{
						OFFSET -2.700000 1.550000 -0.730000
						CHANNELS 3 Zrotation Yrotation Xrotation
						JOINT RightForeArm
						{
							OFFSET -5.450000 0.000000 0.000000
							CHANNELS 3 Zrotation Yrotation Xrotation
							JOINT RightHand
							{
								OFFSET -3.450000 0.000000 0.000000
								CHANNELS 3 Zrotation Yrotation Xrotation
								JOINT RightHandIndex1
								{
									OFFSET -0.750000 0.000000 0.000000
									CHANNELS 3 Zrotation Yrotation Xrotation
									End Site
									{
										OFFSET 0.000000 0.000000 0.000000
									}
								}
							}
						}
					}
				}
			}
		}
	}
}
MOTION
Frames: 10
Frame Time: 0.016667
0.531400 17.397970 -2.727230 3.339148 -23.361574 3.250012 -15.456053 12.849023 5.022533 5.708026 -8.447022 -36.975148 -13.691527 10.651836 32.048663 -0.923546 7.511494 2.116235 0.020400 -0.690160 -0.041290 18.065926 -10.264741 1.908968 -4.482740 2.056232 -16.481639 -0.536304 -5.939689 30.550771 -0.187297 -4.452606 3.241647 -0.117410 0.826650 0.134310 -2.648808 -3.538387 -7.875336 3.880211 0.967825 16.230135 3.124000 1.915477 7.572842 -0.028871 -8.790776 -10.898273 -22.065706 12.232536 36.423266 -4.629510 5.900570 -8.730040 -16.217983 -7.464374 3.095782 -29.279474 -1.856074 -4.161028 -49.572881 -33.634246 10.418351 -4.130676 2.602099 1.094170 0.425680 -0.451710 0.151170 16.819435 14.559416 8.285609 42.819032 -0.569267 -11.847796 43.479127 37.460442 9.144470 1.408527 -1.173558 -0.860230 0.729510 0.547680 -0.540890 
0.552260 17.338520 -2.733940 3.669723 -22.499985 4.042483 -15.428056 12.904765 4.835590 4.243234 -8.011821 -36.670753 -12.061362 8.255500 25.385834 -1.231416 6.118881 2.677387 -0.009280 -0.711710 -0.101720 18.072143 -10.366266 1.924968 -5.274150 1.827865 -15.925800 0.813421 -6.163876 28.434782 -0.103452 -4.396946 3.278347 -0.079160 0.953340 0.156890 -2.694052 -3.439784 -7.676878 3.435180 1.140160 14.703415 3.193328 1.853126 7.604213 -0.644852 -8.593712 -9.800262 -20.380149 11.492508 33.738132 -4.672920 5.620030 -7.030230 -16.802082 -7.110194 2.462869 -29.706217 -3.872180 -3.205040 -44.729537 -32.262058 8.778071 -4.264650 2.580889 1.010440 0.539390 -0.541260 0.177170 18.464084 13.911751 7.427733 42.996828 1.246638 -10.566844 37.175372 34.446521 6.781318 1.356292 -1.168920 -0.897960 0.763420 0.582690 -0.516990 
0.608310 17.239410 -2.743130 3.278154 -20.803676 6.217499 -15.354749 12.737364 4.659405 3.310455 -7.355262 -36.696057 -10.487867 5.278468 13.895825 -1.521434 4.423447 3.434129 -0.047030 -0.742060 -0.157960 18.161995 -10.409148 1.972326 -5.418671 1.696570 -15.718672 2.688627 -6.277402 25.165749 0.024778 -4.282309 3.361160 -0.030130 1.123890 0.146340 -2.991682 -3.071318 -7.451788 4.967270 0.919586 11.833235 2.138468 1.579725 7.360945 -1.205883 -8.363629 -8.497663 -18.351031 10.527756 29.764216 -5.181120 5.486650 -2.932670 -18.167634 -6.615998 1.543924 -32.263555 -7.068199 -1.889220 -33.294348 -29.649400 5.393120 -4.430892 2.520161 0.846980 0.696060 -0.692960 0.227370 20.657421 12.720732 6.578865 44.597993 2.201360 -9.612574 29.915122 32.382279 4.531236 1.310316 -1.231397 -0.952520 0.802150 0.583890 -0.481090 
0.677150 17.145670 -2.743120 2.556799 -19.304421 7.950006 -15.302273 12.354495 4.740003 4.595893 -7.167932 -37.254634 -11.032118 3.599114 4.932756 -1.530172 3.874912 3.698924 -0.025140 -0.684520 -0.177560 18.264533 -10.320778 1.964734 -5.595300 1.562630 -14.756752 4.702268 -6.298225 21.268203 0.072765 -4.142702 3.446847 0.011220 1.183490 0.161910 -3.301119 -2.685982 -7.449995 7.042835 0.656699 10.344242 0.444649 1.425125 6.461878 -1.305806 -7.981654 -7.613762 -16.732289 10.515801 27.577609 -5.318990 6.136080 -1.134630 -19.331453 -6.173888 0.742555 -36.264560 -10.548264 -0.431338 -19.868720 -24.929742 1.732701 -4.523604 2.446101 0.725660 0.775180 -0.744850 0.273500 21.753650 11.516053 5.830254 47.161356 3.205641 -8.779048 23.084383 29.751076 2.551739 1.314361 -1.272892 -0.922640 0.780740 0.541510 -0.441210 
0.730610 17.067490 -2.733440 2.349131 -18.125678 9.186794 -15.288551 12.000742 4.890477 5.760393 -7.427089 -38.930089 -11.192360 2.953528 1.714219 -1.379136 3.676116 3.800744 0.043740 -0.510270 -0.224730 18.333716 -10.232312 1.932607 -6.010152 1.454281 -14.203116 5.919672 -6.145556 18.564243 0.083071 -4.081523 3.515683 0.080420 1.200010 0.147390 -3.486708 -2.363575 -7.458366 7.869995 0.614659 8.915827 -0.860765 1.337488 5.536354 -1.382589 -7.781304 -6.956759 -15.808217 10.467752 26.159610 -4.458690 6.114900 0.788050 -20.528403 -5.756795 0.253859 -40.495204 -12.929363 0.446251 -8.004534 -20.826094 -0.677788 -4.524666 2.449684 0.565870 0.807940 -0.755870 0.370980 22.948299 10.786324 5.106279 50.108427 4.613627 -7.591725 15.795240 26.002822 0.626432 1.385575 -1.346476 -0.831830 0.741620 0.424780 -0.343420 
0.775360 17.028470 -2.706410 1.577072 -17.706473 9.829208 -15.252519 11.819364 4.936284 7.180329 -7.278207 -40.826538 -10.960897 3.397256 3.905427 -1.323943 3.743795 3.765171 0.060720 -0.445410 -0.286240 18.399010 -10.222213 1.972362 -6.045939 1.463716 -13.554980 6.864909 -6.099608 16.753942 0.088473 -4.084449 3.562252 0.103150 1.239910 0.153410 -3.671341 -2.077310 -7.445782 8.990101 0.820049 8.442794 -1.688601 1.551772 4.360418 -1.496867 -7.901089 -6.188068 -15.784933 10.586350 25.502264 -3.626510 5.623190 1.311140 -21.691197 -4.394714 -0.503376 -45.235903 -14.120430 0.610785 1.174420 -18.389949 -2.347527 -4.567040 2.420667 0.500800 0.839650 -0.773650 0.416150 24.105952 9.469673 4.222928 52.040839 5.638927 -6.637570 11.162122 22.828073 -0.329313 1.407533 -1.342557 -0.791590 0.741880 0.406710 -0.290310 
0.827780 17.039230 -2.668210 0.650734 -18.233158 9.612756 -15.234075 11.864000 4.922770 8.805030 -6.843571 -41.619920 -11.452933 4.778416 9.880422 -1.270058 4.276038 3.522356 0.055530 -0.501590 -0.258340 18.406282 -10.257319 2.037981 -6.161622 1.602472 -13.239494 7.463636 -6.228712 16.428040 0.057030 -4.097223 3.526443 0.055940 1.210010 0.203310 -3.707879 -1.995522 -7.475223 9.467598 1.043697 9.103180 -1.463077 1.867154 3.205952 -1.370706 -8.190279 -5.769542 -16.428051 10.815821 26.076224 -4.136950 5.890410 0.979940 -22.857700 -2.819188 -0.876167 -49.456202 -12.962211 -0.764090 5.959589 -20.364475 -3.600954 -4.544680 2.416337 0.556240 0.812610 -0.738500 0.397030 24.900652 8.371205 3.577357 52.524543 6.412232 -6.299957 9.444304 21.839367 -0.449537 1.431264 -1.306841 -0.777510 0.703990 0.427680 -0.312350 
0.909280 17.082040 -2.643150 -0.987649 -19.534290 8.477967 -15.133522 11.919134 4.935099 11.111671 -6.168527 -41.460803 -12.369303 7.220119 18.980125 -1.079582 5.422710 3.006439 0.110540 -0.450620 -0.167820 18.474745 -10.439921 2.081954 -5.773597 2.163750 -14.944358 7.019189 -6.963822 21.631343 -0.053206 -4.323170 3.401628 0.030720 1.054470 0.183040 -3.943821 -1.620933 -7.578775 11.827409 1.185576 11.068370 -2.906390 2.497996 2.784149 -0.492051 -8.416798 -6.051430 -17.402100 11.172211 29.206690 -4.502310 6.386260 -0.979380 -23.197966 -2.208199 -0.895614 -53.099492 -12.085696 -2.408642 8.970196 -23.140190 -4.655810 -4.385591 2.380556 0.656780 0.683760 -0.621300 0.371920 23.154957 8.212941 3.496095 55.279174 7.725400 -6.376809 9.791369 22.559201 -0.250684 1.497084 -1.243138 -0.732040 0.669780 0.376440 -0.344830 
0.974690 17.122660 -2.608470 -1.885509 -20.844814 7.649126 -15.144291 11.804920 4.970941 13.635121 -5.596116 -40.150669 -15.437257 10.687553 26.740010 -0.749770 7.184502 2.311841 0.124760 -0.395950 -0.185980 18.490610 -10.310042 2.194840 -6.787664 3.808687 -19.544959 7.723644 -8.800823 30.892651 -0.229850 -5.328823 3.029041 0.028130 1.002990 0.148620 -3.990498 -1.437145 -7.743812 12.059602 1.606291 11.841901 -2.971475 3.093584 2.757819 -0.194277 -8.193039 -6.158658 -17.294589 11.891817 31.419597 -3.604800 6.744060 -0.731850 -23.035395 -1.685339 -0.695875 -56.184008 -10.897851 -3.750991 8.972938 -25.313703 -5.004366 -4.311207 2.387266 0.656240 0.645060 -0.597800 0.368980 22.321367 7.917663 3.181836 57.144920 8.330628 -6.193035 9.674834 21.135828 -0.304143 1.537018 -1.224174 -0.695610 0.648700 0.355210 -0.334250 
1.045130 17.158450 -2.567790 -2.743623 -20.910459 6.834026 -15.148496 11.691054 4.794587 14.630183 -5.086674 -37.815021 -16.733174 13.665628 32.832984 -0.432208 8.583175 1.800818 0.183890 -0.342950 -0.100430 18.528104 -10.033564 2.528810 -7.991375 5.686800 -24.413557 8.783191 -10.755842 38.586490 -0.502510 -6.489941 2.588965 0.028450 0.918910 0.155390 -4.086606 -1.337791 -7.925166 12.788720 1.313831 12.399908 -3.288405 2.935293 3.260798 0.270867 -7.629517 -6.240885 -16.289407 11.970236 33.413849 -3.905180 7.354560 -1.148860 -22.412083 -1.357151 -0.397525 -57.754906 -9.767691 -4.716124 4.985029 -27.546337 -4.366894 -4.238548 2.425704 0.676460 0.596280 -0.539000 0.364040 20.760313 7.234111 2.817108 58.912284 9.038830 -6.289901 11.888875 22.125066 0.069331 1.575957 -1.245466 -0.650300 0.607050 0.297030 -0.351020 
